<?xml version="1.0" encoding="UTF-8"?>
<svg width="656px" height="114px" viewBox="0 0 656 114" version="1.1" xmlns="http://www.w3.org/2000/svg" xmlns:xlink="http://www.w3.org/1999/xlink">
    <!-- Generator: Sketch 47.1 (45422) - http://www.bohemiancoding.com/sketch -->
    <title>kvlogo</title>
    <desc>Created with Sketch.</desc>
    <defs></defs>
    <g id="Symbols" stroke="none" stroke-width="1" fill="none" fill-rule="evenodd">
        <g id="kvlogo">
            <g id="Group-2">
                <g id="Page-1" transform="translate(19.000000, 17.000000)" fill="#FFFFFF">
                    <path d="M194.610298,19.0155635 C194.610298,19.0155635 187.567118,19 185.814521,19 C182.200018,19 179.572944,19.0179579 177.652739,19.1053529 C171.283635,19.3507772 165.948113,21.679315 161.801636,26.0251207 C158.003736,29.9590926 155.527267,36.4107585 155.179905,43.2778499 C154.980719,46.776044 154.902987,51.598332 155.17869,54.4727893 C155.828475,61.5900937 158.055961,67.1785845 161.801636,71.0886125 C165.837589,75.2835721 171.910343,77.9161966 177.641808,77.9592955 C179.078622,77.9856337 183.895531,78 191.954076,78 C203.573684,78 218.539379,77.9712674 223.151029,77.9628871 L224,77.9604927 L224,66.7463983 L223.143742,66.751187 C219.628831,66.7739337 210.461402,66.8302017 205.280128,66.8780894 L204.004849,66.8876669 C198.636535,66.9271742 193.446759,66.9642872 189.087736,66.9642872 C183.117004,66.9642872 179.615454,66.8936529 178.059614,66.7416095 C171.334646,66.1597744 166.641621,61.4488251 166.10479,54.7481433 C165.780505,50.3412808 165.772003,46.7616777 166.081713,43.4849641 C166.749716,36.651394 172.24313,30.6235339 178.079047,30.324236 C179.230441,30.2631793 181.386269,30.2512073 184.49309,30.2512073 C184.49309,30.2512073 193.005877,30.2619821 195.617161,30.2619821 L224,30.3218416 L224,19.1053529 L223.151029,19.1029585 C220.896823,19.0993669 200.930821,19.0610568 194.610298,19.0155635" id="Fill-1"></path>
                    <polygon id="Fill-3" points="78 31.2361911 106.545474 31.2361911 106.545474 78 117.465457 78 117.465457 31.2361911 146 31.2361911 146 20 78 20"></polygon>
                    <path d="M61.4085365,26.743908 C56.9091634,21.9304215 50.103967,19.931954 45.6432255,19.6842912 C43.9856887,19.5862069 39.9329933,19.5285824 34.8010278,19.5285824 C29.3322431,19.5285824 24.217179,19.5923372 22.3664843,19.6842912 C17.4904531,19.9049808 13.6381591,21.2095019 10.879622,23.5696552 L10.879622,0 L0,0 L0,80 L10.8554772,80 L10.8506483,79.1356322 C10.8156384,73.7937165 10.6562831,46.9799234 10.8808292,43.7137165 C11.4023557,37.0072031 16.2252685,31.725364 22.3411323,31.154023 C24.3451461,30.9836015 28.3097132,30.8867433 33.2183398,30.8867433 C38.3816935,30.8867433 43.4001787,30.994636 45.6999656,31.1527969 C52.0512407,31.63341 56.7558442,36.914023 57.1409529,43.9859004 C57.2170089,45.7170881 57.1940713,63.2790805 57.1457819,79.1380843 L57.1433674,80 L67.9734926,80 L67.9746999,79.1429885 C67.9843578,73.6845977 68.0278183,46.3215326 67.9722854,43.7455939 C67.8805354,37.0378544 65.6724985,31.3170881 61.4085365,26.743908" id="Fill-5"></path>
                    <polygon id="Fill-7" points="382 21.4184733 390.910382 21.4184733 390.910382 81 402 81 402 12 382 12"></polygon>
                    <polygon id="Fill-9" points="427 21.4184733 435.909837 21.4184733 435.909837 81 447 81 447 12 427 12"></polygon>
                    <path d="M342.953169,50.9988875 C342.953169,63.1776961 333.070265,73.0870108 320.924193,73.0870108 L320.077018,73.0870108 C307.930946,73.0870108 298.048042,63.1776961 298.048042,50.9988875 L298.048042,12 L286,12 L286,51.6833766 C286,69.5031521 300.45765,84 318.225335,84 L322.774665,84 C340.54477,84 355,69.5031521 355,51.6833766 L355,12 L342.953169,12 L342.953169,50.9988875 Z" id="Fill-11"></path>
                    <path d="M485.91851,38 L510.696857,38 L510.696857,42.3796601 L486.926581,42.3796601 C485.747691,42.3796601 484.792549,43.3255524 484.792549,44.4915581 L484.792549,56.60017 L507.966162,56.60017 L507.966162,60.97983 L484.792549,60.97983 L484.792549,73.5084419 C484.792549,74.6756374 485.747691,75.6203399 486.926581,75.6203399 L511,75.6203399 L511,80 L485.91851,80 C482.650097,80 480,77.3788669 480,74.1461756 L480,43.8538244 C480,40.6211331 482.650097,38 485.91851,38" id="Fill-13"></path>
                    <path d="M568.91874,38 L593.696845,38 L593.696845,42.3796601 L569.92685,42.3796601 C568.747914,42.3796601 567.791532,43.3255524 567.791532,44.4915581 L567.791532,56.60017 L590.966044,56.60017 L590.966044,60.97983 L567.791532,60.97983 L567.791532,73.5084419 C567.791532,74.6756374 568.747914,75.6203399 569.92685,75.6203399 L594,75.6203399 L594,80 L568.91874,80 C565.648997,80 563,77.3788669 563,74.1461756 L563,43.8538244 C563,40.6211331 565.648997,38 568.91874,38" id="Fill-15"></path>
                    <path d="M613.442374,80 C611.096716,80 608.731128,79.5787857 606.344362,78.7375782 C603.956351,77.8963706 601.841148,76.7572607 600,75.3202486 L602.450296,71.9346628 C604.207982,73.2483629 606.040411,74.2531725 607.945089,74.9515335 C609.851014,75.6498946 611.765658,75.9990751 613.69276,75.9990751 C615.662215,75.9990751 617.272908,75.547338 618.531068,74.6426431 C619.786736,73.74039 620.41457,72.5097118 620.41457,70.9493877 L620.41457,70.8260757 C620.41457,70.0056236 620.195326,69.3170299 619.754348,68.7639572 C619.31586,68.2096637 618.719169,67.7164157 617.965519,67.2866551 C617.210623,66.8544526 616.352334,66.4759703 615.389407,66.1463243 C614.426479,65.8191202 613.40002,65.5114507 612.312522,65.2233157 C611.054362,64.8546006 609.787483,64.4553628 608.511884,64.0219394 C607.232548,63.5921788 606.081519,63.0476525 605.056306,62.3908025 C604.028601,61.7351733 603.191489,60.9135003 602.543724,59.9294462 C601.893468,58.9441711 601.569585,57.712272 601.569585,56.2349698 L601.569585,56.1116578 C601.569585,54.7564468 601.841148,53.5172222 602.38552,52.3878797 C602.931138,51.2585371 603.694753,50.2940175 604.678858,49.4943209 C605.662963,48.6921825 606.835169,48.0768434 608.196721,47.6458619 C609.557028,47.2148803 611.033186,47 612.626439,47 C614.637002,47 616.667497,47.3174368 618.719169,47.9535314 C620.770841,48.589626 622.634411,49.4418217 624.311127,50.5088979 L622.111216,54.0800622 C620.603916,53.1362981 619.02312,52.3878797 617.367582,51.8323652 C615.713289,51.2780717 614.091385,51.0009249 612.500623,51.0009249 C610.573521,51.0009249 609.04629,51.4428947 607.913947,52.3256132 C606.782849,53.2095527 606.218546,54.3059307 606.218546,55.6196308 L606.218546,55.7429428 C606.218546,56.4803729 606.447755,57.1274557 606.909911,57.6817492 C607.369575,58.2360428 607.987443,58.7170817 608.76227,59.1285286 C609.537097,59.5387547 610.426528,59.9074698 611.43181,60.2371157 C612.437092,60.5655407 613.482236,60.8939657 614.573472,61.2223908 C615.829139,61.5911058 617.074842,62.0013319 618.310579,62.4530689 C619.543824,62.9048059 620.667447,63.479855 621.671483,64.1769951 C622.676765,64.8741352 623.482735,65.7165637 624.090637,66.7006179 C624.696049,67.6871138 625,68.8970365 625,70.3340486 L625,70.4573606 C625,71.9773947 624.696049,73.3203966 624.090637,74.4888083 C623.482735,75.6584409 622.665554,76.6559251 621.640341,77.4763772 C620.613882,78.2968293 619.399322,78.9231566 617.996662,79.3541381 C616.591509,79.7851197 615.076735,80 613.442374,80" id="Fill-17"></path>
                    <polygon id="Fill-19" points="533.049742 63.3801309 515 38 520.953438 38 535.560272 58.9994051 550.293802 38 556 38 537.949028 63.3194527 537.949028 80 533.049742 80"></polygon>
                </g>
                <rect id="Rectangle-7" x="0" y="0" width="656" height="114"></rect>
            </g>
        </g>
    </g>
</svg>