<?xml version="1.0" encoding="UTF-8"?>
<svg width="454px" height="72px" viewBox="0 0 454 72" version="1.1" xmlns="http://www.w3.org/2000/svg" xmlns:xlink="http://www.w3.org/1999/xlink">
    <!-- Generator: Sketch 49.2 (51160) - http://www.bohemiancoding.com/sketch -->
    <title>kv_logo</title>
    <desc>Created with Sketch.</desc>
    <defs>
        <polygon id="path-1" points="0.00860558056 0.25992551 33.7159424 0.25992551 33.7159424 32.9864969 0.00860558056 32.9864969"></polygon>
    </defs>
    <g id="kv_logo" stroke="none" stroke-width="1" fill="none" fill-rule="evenodd">
        <g id="Page-1">
            <path d="M166.295613,17.0134532 C166.295613,17.0134532 160.375259,17 158.902061,17 C155.863783,17 153.655518,17.0155229 152.041433,17.0910677 C146.687693,17.3021793 142.202762,19.3170529 138.717317,23.072562 C135.524879,26.4741488 133.44321,32.0499777 133.151224,37.9859381 C132.983792,41.0098007 132.918453,45.1782192 133.150204,47.6629195 C133.696399,53.8151658 135.568779,58.6458951 138.717317,62.0257498 C142.109857,65.6519013 147.214491,67.9275598 152.032245,67.9648147 C153.240001,67.9875817 157.288997,68 164.062846,68 C173.830053,68 186.409913,67.9751633 190.286372,67.9679193 L191,67.9658496 L191,58.2723104 L190.280247,58.2764498 C187.325684,58.2961122 179.619729,58.3447506 175.264455,58.386145 L174.192482,58.3944239 C169.679986,58.4285743 165.317565,58.460655 161.653459,58.460655 C156.634583,58.460655 153.691251,58.3995982 152.383444,58.2681709 C146.730572,57.7652287 142.785711,53.6930522 142.334461,47.9009375 C142.061874,44.0916156 142.054727,40.9973824 142.315063,38.164969 C142.876573,32.2579847 147.494225,27.0474615 152.399778,26.7887464 C153.367617,26.7359685 155.179762,26.7256199 157.791293,26.7256199 C157.791293,26.7256199 164.946969,26.7349336 167.141962,26.7349336 L191,26.7866767 L191,17.0900329 L190.286372,17.088998 C188.391532,17.0848586 171.608516,17.051743 166.295613,17.0134532" id="Fill-1" fill="#FFFFFF"></path>
            <polygon id="Fill-3" fill="#FFFFFF" points="67 26.6874033 91.3476102 26.6874033 91.3476102 67 100.661713 67 100.661713 26.6874033 125 26.6874033 125 17 67 17"></polygon>
            <path d="M52.3778694,22.3969962 C48.5401687,18.366728 42.7357366,16.6930115 38.9309864,16.484567 C37.5172051,16.4024215 34.0604943,16.3541609 29.6832296,16.3541609 C25.018678,16.3541609 20.6558291,16.4075556 19.0772954,16.484567 C14.9183276,16.6704215 11.6325474,17.761931 9.27967757,19.7385594 L9.27967757,0 L0,0 L0,67 L9.25908352,67 L9.25496472,66.2750651 C9.22510335,61.8012107 9.08918264,39.3456858 9.28070727,36.6092107 C9.72553869,30.9935326 13.8391996,26.5689655 19.0556717,26.0914943 C20.7649776,25.9487663 24.1465201,25.8676475 28.3332898,25.8676475 C32.7373268,25.8676475 37.0177995,25.9569808 38.9793824,26.0904674 C44.3966465,26.491954 48.4093965,30.9144674 48.7378716,36.8371648 C48.8027428,38.2880613 48.7831785,52.9962299 48.7419904,66.2771188 L48.739931,67 L57.9773908,67 L57.9784205,66.2812261 C57.9866581,61.7098238 58.0237274,38.7942835 57.9763611,36.6369349 C57.8981037,31.0181762 56.0147781,26.2280613 52.3778694,22.3969962" id="Fill-5" fill="#FFFFFF"></path>
            <polygon id="Fill-7" fill="#FFFFFF" points="328 19.0543736 335.573825 19.0543736 335.573825 70 345 70 345 11 328 11"></polygon>
            <path d="M376.155423,61.677075 L388.716142,50.6999096 C391.18319,48.5869814 393.361496,46.6179335 395.188825,44.8460922 C397.041662,43.049097 398.586372,41.2641757 399.783165,39.5376115 C401.004446,37.7758318 401.927803,35.9577073 402.525689,34.1315336 C403.128677,32.293286 403.434763,30.2779549 403.434763,28.1438974 L403.434763,27.9859309 C403.434763,25.5439895 402.963391,23.2610208 402.032892,21.1984004 C401.104433,19.1438292 399.781125,17.3327478 398.097656,15.8174764 C396.422349,14.3112604 394.411369,13.117959 392.11879,12.2707754 C389.831313,11.4286226 387.319373,11 384.653371,11 C382.079193,11 379.725398,11.2827299 377.661363,11.8401405 C375.583044,12.4015757 373.672052,13.2306485 371.982461,14.3032112 C370.308174,15.3667184 368.739998,16.6988694 367.324863,18.2624363 C365.952581,19.7777077 364.589481,21.5062842 363.272294,23.3998704 L362.568298,24.4110575 L369.295032,29.2154539 L370.04188,28.1831375 C372.204883,25.1847917 374.410737,22.888743 376.597206,21.3583792 C378.679606,19.9014649 381.227256,19.1639523 384.168736,19.1639523 C385.569586,19.1639523 386.897996,19.3923498 388.120296,19.8410955 C389.328313,20.2848105 390.39553,20.9227136 391.29134,21.7346817 C392.187149,22.5486622 392.916652,23.5417384 393.461484,24.684732 C393.996113,25.8116271 394.268529,27.117618 394.268529,28.5664831 C394.268529,29.8030492 394.072635,31.0235168 393.686967,32.1926704 C393.293137,33.3799349 392.665663,34.6154948 391.820867,35.8651409 C390.951585,37.1489964 389.779279,38.5485598 388.334556,40.023585 C386.869428,41.5217517 385.04516,43.2402667 382.921948,45.1258036 L362,63.3221406 L362,70 L404,70 L404,61.677075 L376.155423,61.677075 Z" id="Fill-9" fill="#FFFFFF"></path>
            <path d="M291.873678,43.4990729 C291.873678,53.6480801 283.566309,61.9058423 273.356568,61.9058423 L272.64445,61.9058423 C262.434708,61.9058423 254.127339,53.6480801 254.127339,43.4990729 L254.127339,11 L244,11 L244,44.0694805 C244,58.9192934 256.152807,71 271.087962,71 L274.912038,71 C289.849227,71 302,58.9192934 302,44.0694805 L302,11 L291.873678,11 L291.873678,43.4990729 Z" id="Fill-11" fill="#FFFFFF"></path>
            <g id="Group-15" transform="translate(419.000000, 9.000000)">
                <mask id="mask-2" fill="white">
                    <use xlink:href="#path-1"></use>
                </mask>
                <g id="Clip-14"></g>
                <polygon id="Fill-13" fill="#FFFFFF" mask="url(#mask-2)" points="33.7167748 13.1763949 20.41289 13.1763949 20.41289 0.25992551 13.3114499 0.25992551 13.3114499 13.1763949 0.00860558056 13.1763949 0.00860558056 20.0710378 13.3114499 20.0710378 13.3114499 32.9864969 20.41289 32.9864969 20.41289 20.0710378 33.7167748 20.0710378"></polygon>
            </g>
        </g>
    </g>
</svg>