<?xml version="1.0" encoding="UTF-8"?>
<svg width="660px" height="65px" viewBox="0 0 660 65" version="1.1" xmlns="http://www.w3.org/2000/svg" xmlns:xlink="http://www.w3.org/1999/xlink">
    <!-- Generator: Sketch 48.2 (47327) - http://www.bohemiancoding.com/sketch -->
    <title>kv-logo_D12+D12</title>
    <desc>Created with Sketch.</desc>
    <defs></defs>
    <g id="Symbols" stroke="none" stroke-width="1" fill="none" fill-rule="evenodd">
        <g id="kv-logo_D12+D12" fill="#FFFFFF" fill-rule="nonzero">
            <g id="HTC_Breeze_n_Breeze+_logo_black-Copy">
                <path d="M158.10026,16 L150.9049,16 C147.973457,16 145.841498,16 144.278869,16.0838114 C139.430156,16.1909502 134.830647,18.2287624 131.523458,21.735096 C128.446654,24.9319032 126.43583,30.1880768 126.145108,35.7675231 C125.951631,38.8016791 125.951631,41.8448661 126.145108,44.8790222 C126.678098,50.7218758 128.446654,55.2237466 131.523458,58.4085807 C134.899727,61.8664929 139.515509,63.8745954 144.375777,64 C145.587117,64 149.451292,64 155.992528,64 L181.309536,64 L182,64 L182,54.8765278 L181.309536,54.8765278 L166.773455,54.9842854 L165.743816,54.9842854 C161.382992,54.9842854 157.179641,55.0441507 153.630415,55.0441507 C148.785055,55.0441507 145.950519,55.0441507 144.678612,54.8645548 C139.392014,54.5551601 135.202664,50.3367053 134.987891,45.1065104 C134.72992,42.0587036 134.72992,38.9949257 134.987891,35.947119 C135.532994,30.3916189 139.990726,25.482664 144.678612,25.2432028 C145.611344,25.2432028 147.367787,25.2432028 149.887374,25.2432028 L158.911858,25.2432028 L181.92732,25.2432028 L181.92732,16.1077575 L181.236856,16.1077575 C179.431959,16.1077575 163.236342,16.0718384 158.10026,16 Z" id="Shape"></path>
                <polygon id="Shape" points="64 25.1067715 87.0867179 25.1067715 87.0867179 63 95.9132821 63 95.9132821 25.1067715 119 25.1067715 119 16 64 16"></polygon>
                <path d="M49.7138013,21.393597 C46.2706063,18.0436248 41.7452392,16.0424775 36.9580495,15.752919 C35.6128101,15.6806026 32.3337891,15.6323917 28.1779604,15.6323917 C23.7458771,15.6323917 19.6140704,15.6323917 18.1126872,15.752919 C14.7559129,15.7261492 11.4855354,16.8200566 8.81612229,18.8625235 L8.81612229,0 L0,0 L0,63.9879473 L8.79210016,63.9879473 L8.79210016,63.3009416 C8.79210016,59.034275 8.63595631,37.5804143 8.79210016,34.9649718 C9.03400618,29.7989627 12.9497049,25.5592066 18.064643,24.9250471 C19.6861368,24.792467 22.8690693,24.7080979 26.8687542,24.7080979 C31.0486051,24.7080979 35.1083453,24.792467 36.9700605,24.9250471 C42.1107967,25.3107345 45.9183045,29.5291902 46.2305922,35.1939736 C46.2906476,36.5800377 46.2305922,50.6214689 46.2305922,63.3129944 L46.2305922,64 L54.9986703,64 L54.9986703,63.3129944 C54.9986703,58.9499058 54.9986703,37.0621469 54.9986703,35.0011299 C55.0574852,29.9500587 53.1632172,25.0726787 49.7138013,21.393597 Z" id="Shape"></path>
                <path d="M213,16.0021467 L229.591786,16.0021467 C233.111194,15.9586407 236.607619,16.576771 239.900433,17.8246045 C242.878631,18.9598269 245.605889,20.6707448 247.92756,22.860343 C250.171907,24.9958328 251.949514,27.5762763 253.147582,30.4379305 C254.397077,33.4243262 255.027063,36.6350073 254.999077,39.8739454 L254.999077,40.0058338 C255.027444,43.2513896 254.401723,46.4691942 253.159527,49.4658283 C251.968277,52.3417132 250.19009,54.9352529 247.939505,57.0793854 C245.613827,59.2726233 242.88827,60.9946872 239.912378,62.1510935 C236.624129,63.4179674 233.125577,64.044612 229.603731,63.997531 L213,63.997531 L213,16.0021467 Z M229.591786,58.9857722 C232.388672,59.0226009 235.167798,58.5346362 237.786145,57.5469897 C240.119194,56.6655614 242.245964,55.3104342 244.033448,53.5663583 C245.751525,51.862634 247.10151,49.821912 247.999231,47.5714314 C248.94181,45.2081962 249.416518,42.68323 249.396811,40.1377222 L249.396811,39.9938439 C249.416518,37.4483361 248.94181,34.9233699 247.999231,32.5601346 C247.093164,30.3140629 245.744238,28.274942 244.033448,26.5652078 C242.260117,24.7885791 240.141784,23.3969167 237.810035,22.4766677 C235.197043,21.4658809 232.415762,20.9653292 229.615676,21.0019157 L218.411144,21.0019157 L218.411144,58.9857722 L229.591786,58.9857722 Z" id="Shape"></path>
                <path d="M270.859404,53.5929925 C271.553718,54.9984805 272.520308,56.2565114 273.704713,57.2962029 C274.84595,58.2940905 276.165341,59.0743355 277.595735,59.5972269 C279.043213,60.1259845 280.575362,60.3939063 282.119048,60.3882039 C284.343608,60.4510789 286.550557,59.982322 288.551393,59.0219709 C290.357671,58.0881761 291.999884,56.8742367 293.41517,55.426621 L296.746857,58.3748079 C294.993588,60.3271062 292.896858,61.9511246 290.557701,63.1686079 C287.878412,64.4615724 284.918244,65.0870618 281.936656,64.9902518 C279.551664,65.0060961 277.187327,64.5538836 274.981455,63.6599724 C272.841591,62.7936875 270.90173,61.5095414 269.278676,59.8848549 C267.615233,58.2002871 266.30537,56.208781 265.424133,54.0244345 C264.453017,51.6279294 263.969624,49.0665668 264.001478,46.4861841 C263.990372,44.032518 264.42695,41.596872 265.290379,39.2954841 C266.090504,37.123743 267.303838,35.1224787 268.865255,33.3991102 C270.393349,31.7316948 272.251277,30.3899045 274.324845,29.4562098 C278.786289,27.5145967 283.871079,27.5145967 288.332523,29.4562098 C290.368762,30.3975039 292.173429,31.7632208 293.621881,33.4590327 C295.10031,35.2257191 296.211704,37.2617871 296.892771,39.4512826 C297.64539,41.8247468 298.018693,44.2991883 297.99928,46.7857966 L297.99928,47.612727 C297.993633,47.9573195 297.96928,48.3013671 297.926323,48.643394 L269.509705,48.643394 C269.64971,50.3605592 270.107133,52.0380154 270.859404,53.5929925 Z M292.55185,44.3409586 C292.420343,42.7823037 292.068365,41.2494271 291.506138,39.7868486 C290.979994,38.4014991 290.214845,37.1162152 289.244481,35.9877622 C288.285845,34.8872793 287.10033,34.0007219 285.766881,33.3871257 C284.294617,32.7261561 282.690856,32.3985525 281.073336,32.4283657 C279.586757,32.4171231 278.114945,32.7195093 276.756733,33.3152187 C275.446029,33.9126491 274.268253,34.7598518 273.291292,35.8079947 C272.243596,36.9189084 271.385376,38.189741 270.749969,39.5711276 C270.05438,41.0878348 269.618836,42.7077486 269.461068,44.3649276 L292.55185,44.3409586 Z" id="Shape"></path>
                <path d="M318.518084,64.9990725 C315.902801,64.984344 313.309996,64.5065849 310.855762,63.5871865 C308.379153,62.7046161 306.062752,61.4121147 304,59.7618202 L306.645043,55.9726561 C308.447564,57.3899422 310.446002,58.5285249 312.575633,59.3515285 C314.555008,60.1309958 316.656631,60.5398223 318.77903,60.5582687 C320.634406,60.6380433 322.465313,60.1046222 323.99795,59.0377761 C325.326508,58.1016179 326.095315,56.5418185 326.038072,54.8986574 L326.038072,54.765916 C326.070004,53.9332911 325.818642,53.114948 325.326402,52.4489749 C324.792011,51.7769602 324.135648,51.2157022 323.393029,50.7957408 C322.510324,50.2797788 321.580869,49.8514235 320.617513,49.5165963 C319.573729,49.1465293 318.466686,48.8005971 317.296383,48.4787998 C315.936301,48.0685081 314.568311,47.6220142 313.192415,47.1393182 C311.877085,46.6878014 310.622036,46.0716608 309.456143,45.3050732 C308.362532,44.561302 307.43999,43.5856703 306.751794,42.445099 C306.011608,41.1992594 305.644739,39.7607904 305.696149,38.3059803 L305.696149,38.2215085 C305.678748,36.7805292 305.978658,35.3538661 306.573876,34.0461875 C307.154023,32.7909085 308.000697,31.6822235 309.052863,30.8000565 C310.175695,29.8672272 311.464248,29.1625885 312.84844,28.7244634 C314.383115,28.2327548 315.983977,27.9884505 317.592912,28.0004194 C319.828438,28.0121523 322.048828,28.3744054 324.175867,29.0744181 C326.305906,29.7463054 328.33678,30.7083593 330.213208,31.9343923 L327.840972,35.9407696 C326.23837,34.8943941 324.518041,34.0476345 322.716942,33.4186826 C321.02797,32.8155694 319.252385,32.5015804 317.462439,32.4894927 C315.700578,32.4065153 313.963769,32.9387461 312.54005,33.9979179 C311.403603,34.8436416 310.726454,36.1856989 310.713428,37.6181384 L310.713428,37.7508798 C310.70092,38.5422561 310.965829,39.3122994 311.460682,39.9230121 C312.017417,40.5913349 312.698694,41.1409104 313.465222,41.5400439 C314.389986,42.0260749 315.354335,42.429826 316.347488,42.746784 C317.43081,43.116851 318.561575,43.486918 319.739786,43.856985 C321.099868,44.2672766 322.444135,44.7258379 323.772587,45.2326687 C325.059811,45.7129392 326.279947,46.3620112 327.402108,47.163453 C328.454823,47.9106178 329.34343,48.8722053 330.011568,49.9872249 C330.700489,51.2251307 331.041096,52.6321203 330.996046,54.0539393 L330.996046,54.1866807 C331.026457,55.7533116 330.68895,57.3047074 330.011568,58.7119563 C329.369603,60.0022721 328.468479,61.1410655 327.366525,62.0546265 C326.218893,63.0442023 324.893706,63.798226 323.464196,64.2750284 C321.861716,64.7728755 320.19352,65.0170768 318.518084,64.9990725 Z" id="Shape"></path>
                <path d="M341,15 L347,15 L347,20.8253425 L341,20.8253425 L341,15 Z M341.348,28.5684932 L346.628,28.5684932 L346.628,64 L341.348,64 L341.348,28.5684932 Z" id="Shape"></path>
                <path d="M359.03643,28.6743616 L364.428051,28.6743616 L364.428051,37.9001373 C365.064196,36.4634904 365.880055,35.1105962 366.856709,33.8728233 C367.806149,32.6625416 368.926577,31.5920966 370.183971,30.6939939 C371.431463,29.8040707 372.812077,29.110613 374.27626,28.6385102 C375.798379,28.1462586 377.399944,27.9355669 379,28.0170849 L379,33.693566 L378.587128,33.693566 C376.695367,33.6832061 374.819345,34.032165 373.061931,34.7213078 C371.330331,35.3981516 369.774453,36.4475169 368.508197,37.7925829 C367.150754,39.2562157 366.109657,40.9760251 365.448087,42.8476387 C364.667069,45.1129344 364.29313,47.494839 364.343048,49.8864753 L364.343048,64 L359,64 L359.03643,28.6743616 Z" id="Shape"></path>
                <path d="M389.852145,53.6003773 C390.546957,55.0049554 391.514239,56.2621719 392.699491,57.3011903 C393.841545,58.2984318 395.16188,59.0781718 396.593298,59.6007246 C398.041812,60.1291399 399.575058,60.3968883 401.119849,60.3911895 C403.346002,60.4540239 405.55453,59.9855704 407.556798,59.025841 C409.364368,58.0926508 411.007757,56.8794972 412.424057,55.4328187 L415.758129,58.379097 C414.003604,60.3301314 411.905373,61.9530984 409.564542,63.1697935 C406.883335,64.4619209 403.921048,65.0870054 400.937326,64.9902582 C398.550627,65.0060922 396.184598,64.5541724 393.977147,63.6608399 C391.838008,62.7866163 389.900858,61.4951264 388.282454,59.8642129 C386.61782,58.1807357 385.30702,56.1905188 384.425152,54.0075865 C383.453341,51.6126329 382.969603,49.0529284 383.001479,46.4742163 C382.990365,44.0221386 383.427256,41.5880695 384.291302,39.2881715 C385.092001,37.1178364 386.306203,35.1178677 387.868737,33.3956149 C389.397925,31.7292789 391.257183,30.3883573 393.332235,29.455267 C397.796872,27.514911 402.885302,27.514911 407.34994,29.455267 C409.380039,30.4023697 411.177545,31.7711743 412.618747,33.4674753 C414.098234,35.2330179 415.210424,37.2677679 415.891978,39.4558459 C416.645136,41.8277736 417.018706,44.3006131 416.99928,46.7856115 L416.99928,47.6120067 C416.993629,47.956376 416.969258,48.300201 416.926271,48.6420064 L388.464976,48.6420064 C388.615094,50.3644405 389.085281,52.0451006 389.852145,53.6003773 Z M411.560118,44.3543331 C411.428517,42.7966872 411.076287,41.264803 410.513658,39.8031714 C409.987138,38.4187187 409.22144,37.1342669 408.250382,36.0065445 C407.29106,34.9067741 406.104697,34.0207906 404.770293,33.4075916 C403.296976,32.7470499 401.692066,32.4196584 400.073388,32.4494523 C398.585746,32.438217 397.11288,32.7404074 395.753696,33.3357312 C394.410523,33.9267214 393.202109,34.7780431 392.200597,35.8388701 C391.152152,36.9490646 390.293317,38.2190744 389.657455,39.5995668 C388.961368,41.1152921 388.525513,42.7341572 388.367631,44.3902633 L411.560118,44.3543331 Z" id="Shape"></path>
                <polygon id="Shape" points="445.50038 21.7532821 436.314068 24.59351 435 20.0904137 446.911787 16 451 16 451 65 445.50038 65"></polygon>
                <path d="M461,60.7728999 L478.631429,45.3017135 C480.469048,43.64308 482.043571,42.1575562 483.355,40.8451423 C484.505115,39.6832496 485.549438,38.4222643 486.475714,37.0769845 C487.210989,36.001558 487.795194,34.8313175 488.212143,33.5986849 C488.583161,32.4720271 488.771705,31.2938594 488.770714,30.108308 C488.791411,28.7888923 488.517699,27.4813275 487.969286,26.2797631 C486.947751,24.0651844 485.075475,22.350928 482.772143,21.5212561 C481.558904,21.0793612 480.275557,20.8584402 478.983571,20.8690749 C476.436043,20.7994221 473.931944,21.5351871 471.831429,22.9705475 C469.53383,24.6927846 467.539585,26.7823972 465.93,29.1541911 L461.959286,26.2435308 C462.998451,24.7237612 464.134093,23.271517 465.359286,21.8956564 C466.468907,20.6475847 467.743344,19.5547122 469.147857,18.646828 C470.549631,17.770923 472.076715,17.1112593 473.677143,16.6902845 C475.548291,16.2080809 477.475803,15.9765636 479.408571,16.0018711 C481.478939,15.9793216 483.536187,16.3312615 485.48,17.04053 C487.249656,17.6776151 488.87847,18.6496378 490.276429,19.9028806 C491.607271,21.1081982 492.670221,22.5767924 493.397143,24.2145227 C494.147391,25.9323927 494.52396,27.78863 494.502143,29.6614431 L494.502143,29.7942949 C494.514187,31.4325633 494.268355,33.0626124 493.773571,34.6252664 C493.249296,36.1930983 492.500912,37.6777339 491.551429,39.0335279 C490.426896,40.633349 489.150048,42.1217194 487.738571,43.4780218 C486.184286,44.9917262 484.342619,46.6704888 482.213571,48.5143096 L469.245,59.9395573 L495,59.9395573 L495,65 L461,65 L461,60.7728999 Z" id="Shape"></path>
                <polygon id="Shape" points="566.50038 21.7532821 557.314068 24.59351 556 20.0904137 567.911787 16 572 16 572 65 566.50038 65"></polygon>
                <path d="M582.012143,60.7728999 L599.643571,45.3017135 C601.497381,43.64308 603.071905,42.1454788 604.367143,40.80891 C605.517258,39.6470173 606.561581,38.386032 607.487857,37.0407522 C608.224436,35.9772666 608.81265,34.8193657 609.236429,33.5986849 C609.607447,32.4720271 609.795991,31.2938594 609.795,30.108308 C609.815697,28.7888923 609.541984,27.4813275 608.993571,26.2797631 C607.969224,24.0627901 606.092189,22.348182 603.784286,21.5212561 C602.571047,21.0793612 601.2877,20.8584402 599.995714,20.8690749 C597.448186,20.7994221 594.944086,21.5351871 592.843571,22.9705475 C590.545973,24.6927846 588.551728,26.7823972 586.942143,29.1541911 L582.910714,26.2556082 C583.949879,24.7358386 585.085521,23.2835945 586.310714,21.9077338 C587.420336,20.6596621 588.694772,19.5667896 590.099286,18.6589054 C591.51911,17.773183 593.067102,17.1092595 594.689286,16.6902845 C596.560434,16.2080809 598.487946,15.9765636 600.420714,16.0018711 C602.491082,15.9793216 604.54833,16.3312615 606.492143,17.04053 C608.261799,17.6776151 609.890613,18.6496378 611.288571,19.9028806 C612.619414,21.1081982 613.682364,22.5767924 614.409286,24.2145227 C615.159534,25.9323927 615.536103,27.78863 615.514286,29.6614431 L615.514286,29.7942949 C615.526329,31.4325633 615.280497,33.0626124 614.785714,34.6252664 C614.261439,36.1930983 613.513055,37.6777339 612.563571,39.0335279 C611.439039,40.633349 610.162191,42.1217194 608.750714,43.4780218 C607.196429,44.9917262 605.354762,46.6704888 603.225714,48.5143096 L590.245,59.9637122 L616,59.9637122 L616,65 L582,65 L582.012143,60.7728999 Z" id="Shape"></path>
                <rect id="Rectangle-path" x="526" y="15" width="2" height="50"></rect>
                <rect id="Rectangle-path" x="639" y="15" width="5" height="33"></rect>
                <rect id="Rectangle-path" transform="translate(641.500000, 31.500000) rotate(90.000000) translate(-641.500000, -31.500000) " x="639" y="15" width="5" height="33"></rect>
            </g>
        </g>
    </g>
</svg>